PathFileType	4	(X/Y/Z)	E:\MAC3D_DATA\2020_06_02_vinay\TPose1.trc																																																																
DataRate	CameraRate	NumFrames	NumMarkers	Units	OrigDataRate	OrigDataStartFrame	OrigNumFrames																																																												
1000	200	20	22	mm	200	617	822																																																												
Frame#	Time	RAsis			LAsis			RPsi			LPsi			RThigh1			RThigh2			RThigh3			RKneeOut			RKneeIn			LThigh1			LThigh2			LThigh3			LKneeOut			LKneeIn			MidAsis			MidPsi			MidPelvis			RHJC			LHJC			MidHJC			RKJC			LKJC		
		X1	Y1	Z1	X2	Y2	Z2	X3	Y3	Z3	X4	Y4	Z4	X5	Y5	Z5	X6	Y6	Z6	X7	Y7	Z7	X8	Y8	Z8	X9	Y9	Z9	X10	Y10	Z10	X11	Y11	Z11	X12	Y12	Z12	X13	Y13	Z13	X14	Y14	Z14	X15	Y15	Z15	X16	Y16	Z16	X17	Y17	Z17	X18	Y18	Z18	X19	Y19	Z19	X20	Y20	Z20	X21	Y21	Z21	X22	Y22	Z22
																																																																			
617	3.08	34.9619	972.585	226.695	40.5094	972.463	-16.1986	-160.223	1020.26	152.725	-159.818	1020.88	69.9362	-66.1648	742.161	298.819	-153.182	642.564	269.751	-38.4268	660.263	276.882	-113.226	507.518	277.787	-96.9893	492.804	162.385	-14.6776	653.911	-61.1778	-55.2528	747.456	-94.1619	-111.233	650.389	-82.2518	-90.5745	504.356	-70.8711	-90.2502	492.088	43.7944	37.74	972.52	105.25	-160.02	1020.57	111.33	-61.14	996.55	108.29	-45.99	903.99	207.96	-44.44	914.17	1.99	-45.22	909.08	104.98	-105.11	500.16	220.09	-90.41	498.22	-13.54
618	3.085	34.9151	972.588	226.705	40.4843	972.466	-16.1913	-160.263	1020.27	152.725	-159.851	1020.89	69.9356	-66.2045	742.164	298.833	-153.215	642.568	269.749	-38.4643	660.266	276.893	-113.244	507.52	277.794	-97.0038	492.808	162.388	-14.6982	653.92	-61.1658	-55.274	747.458	-94.1568	-111.248	650.39	-82.2485	-90.5854	504.359	-70.8684	-90.2621	492.09	43.7969	37.70	972.53	105.26	-160.06	1020.58	111.33	-61.18	996.55	108.29	-46.04	904.00	207.96	-44.48	914.18	2.00	-45.26	909.09	104.98	-105.12	500.16	220.09	-90.42	498.22	-13.54
619	3.09	34.8675	972.591	226.716	40.4586	972.468	-16.1838	-160.303	1020.27	152.725	-159.885	1020.89	69.9353	-66.245	742.168	298.845	-153.247	642.571	269.746	-38.5017	660.268	276.904	-113.263	507.522	277.8	-97.0175	492.812	162.392	-14.7194	653.929	-61.1552	-55.2963	747.461	-94.1521	-111.263	650.391	-82.245	-90.5962	504.361	-70.8658	-90.2738	492.091	43.7996	37.66	972.53	105.27	-160.09	1020.58	111.33	-61.22	996.55	108.30	-46.08	904.00	207.97	-44.50	914.18	2.00	-45.29	909.09	104.99	-105.14	500.17	220.10	-90.44	498.23	-13.53
620	3.095	34.8194	972.595	226.727	40.4326	972.471	-16.1763	-160.344	1020.28	152.725	-159.919	1020.9	69.9351	-66.2863	742.172	298.855	-153.28	642.575	269.744	-38.5387	660.271	276.915	-113.282	507.525	277.806	-97.0306	492.816	162.395	-14.741	653.937	-61.146	-55.3196	747.464	-94.1479	-111.278	650.392	-82.2413	-90.6069	504.363	-70.8632	-90.2852	492.092	43.8024	37.63	972.53	105.28	-160.13	1020.59	111.33	-61.25	996.56	108.30	-46.13	904.00	207.97	-44.54	914.19	2.01	-45.33	909.10	104.99	-105.16	500.17	220.10	-90.45	498.23	-13.53
621	3.1	34.7709	972.598	226.739	40.4068	972.473	-16.1689	-160.386	1020.28	152.725	-159.953	1020.9	69.9352	-66.3283	742.176	298.864	-153.312	642.58	269.741	-38.5752	660.274	276.927	-113.301	507.528	277.812	-97.0431	492.821	162.399	-14.7628	653.945	-61.1383	-55.3437	747.466	-94.1439	-111.294	650.393	-82.2375	-90.6174	504.364	-70.8607	-90.2963	492.093	43.8053	37.59	972.54	105.29	-160.17	1020.59	111.33	-61.29	996.56	108.31	-46.17	904.01	207.98	-44.57	914.19	2.01	-45.37	909.10	105.00	-105.17	500.17	220.11	-90.46	498.23	-13.53
622	3.105	34.7221	972.602	226.751	40.3813	972.474	-16.1619	-160.429	1020.29	152.725	-159.988	1020.9	69.9354	-66.3711	742.179	298.87	-153.345	642.584	269.738	-38.6111	660.278	276.938	-113.321	507.531	277.817	-97.0552	492.825	162.403	-14.7847	653.953	-61.132	-55.3683	747.469	-94.1404	-111.311	650.394	-82.2335	-90.6277	504.365	-70.8583	-90.3069	492.093	43.8082	37.55	972.54	105.29	-160.21	1020.60	111.33	-61.33	996.57	108.31	-46.22	904.01	207.99	-44.60	914.19	2.02	-45.41	909.10	105.00	-105.19	500.18	220.11	-90.47	498.23	-13.53
623	3.11	34.6733	972.606	226.764	40.3566	972.475	-16.1553	-160.471	1020.3	152.726	-160.022	1020.9	69.9357	-66.4145	742.183	298.874	-153.377	642.589	269.734	-38.6463	660.281	276.95	-113.341	507.534	277.822	-97.067	492.829	162.408	-14.8065	653.96	-61.1271	-55.3933	747.472	-94.1373	-111.327	650.394	-82.2293	-90.6376	504.366	-70.8561	-90.3169	492.093	43.8112	37.51	972.54	105.30	-160.25	1020.60	111.33	-61.37	996.57	108.32	-46.26	904.01	207.99	-44.63	914.20	2.02	-45.44	909.10	105.01	-105.20	500.18	220.12	-90.48	498.23	-13.52
624	3.115	34.6246	972.61	226.776	40.3328	972.474	-16.1494	-160.514	1020.3	152.726	-160.056	1020.91	69.9362	-66.4585	742.187	298.876	-153.409	642.594	269.73	-38.6806	660.286	276.961	-113.361	507.537	277.826	-97.0786	492.834	162.412	-14.8279	653.966	-61.1233	-55.4184	747.475	-94.1344	-111.343	650.395	-82.2252	-90.6469	504.366	-70.854	-90.3262	492.093	43.814	37.48	972.54	105.31	-160.29	1020.61	111.33	-61.40	996.57	108.32	-46.31	904.02	208.00	-44.66	914.20	2.03	-45.48	909.11	105.01	-105.22	500.19	220.12	-90.49	498.23	-13.52
625	3.12	34.5762	972.614	226.789	40.31	972.471	-16.144	-160.558	1020.31	152.727	-160.09	1020.91	69.9369	-66.5031	742.191	298.876	-153.441	642.599	269.726	-38.714	660.29	276.972	-113.381	507.54	277.829	-97.09	492.838	162.417	-14.8487	653.972	-61.1205	-55.4433	747.477	-94.1319	-111.359	650.395	-82.221	-90.6557	504.365	-70.8522	-90.3349	492.093	43.8168	37.44	972.54	105.32	-160.32	1020.61	111.33	-61.44	996.58	108.33	-46.35	904.02	208.00	-44.69	914.20	2.04	-45.52	909.11	105.02	-105.24	500.19	220.12	-90.50	498.23	-13.52
626	3.125	34.5283	972.619	226.802	40.288	972.467	-16.1393	-160.601	1020.31	152.728	-160.123	1020.91	69.9375	-66.548	742.196	298.874	-153.473	642.604	269.721	-38.7465	660.295	276.984	-113.401	507.542	277.832	-97.1014	492.843	162.422	-14.8688	653.977	-61.1186	-55.4679	747.48	-94.1295	-111.375	650.394	-82.2169	-90.6637	504.363	-70.8505	-90.3428	492.092	43.8194	37.41	972.54	105.33	-160.36	1020.61	111.33	-61.48	996.58	108.33	-46.39	904.02	208.01	-44.72	914.19	2.04	-45.56	909.11	105.03	-105.25	500.19	220.13	-90.50	498.23	-13.52
627	3.13	34.481	972.625	226.815	40.2666	972.462	-16.1351	-160.644	1020.32	152.729	-160.157	1020.91	69.938	-66.5932	742.202	298.871	-153.504	642.609	269.716	-38.778	660.3	276.995	-113.421	507.545	277.834	-97.113	492.848	162.427	-14.8879	653.981	-61.1173	-55.492	747.482	-94.1273	-111.39	650.394	-82.213	-90.6708	504.361	-70.849	-90.3499	492.091	43.8219	37.37	972.54	105.34	-160.40	1020.62	111.33	-61.51	996.58	108.34	-46.43	904.03	208.02	-44.75	914.19	2.05	-45.59	909.11	105.03	-105.27	500.20	220.13	-90.51	498.23	-13.51
628	3.135	34.4345	972.631	226.828	40.2455	972.457	-16.1312	-160.687	1020.33	152.73	-160.19	1020.91	69.9384	-66.6383	742.208	298.868	-153.535	642.614	269.712	-38.8086	660.305	277.007	-113.44	507.548	277.835	-97.1248	492.853	162.432	-14.9059	653.985	-61.1163	-55.5152	747.484	-94.1253	-111.405	650.393	-82.2093	-90.677	504.358	-70.8475	-90.3564	492.09	43.8241	37.34	972.54	105.35	-160.44	1020.62	111.33	-61.55	996.58	108.34	-46.48	904.03	208.03	-44.78	914.19	2.06	-45.63	909.11	105.04	-105.28	500.20	220.13	-90.52	498.22	-13.51
629	3.14	34.3889	972.637	226.842	40.2241	972.453	-16.1275	-160.73	1020.33	152.73	-160.223	1020.91	69.9384	-66.6834	742.214	298.864	-153.566	642.618	269.707	-38.8383	660.311	277.018	-113.458	507.55	277.836	-97.1369	492.858	162.436	-14.9225	653.989	-61.1156	-55.5373	747.486	-94.1233	-111.419	650.391	-82.2061	-90.682	504.355	-70.8462	-90.3621	492.089	43.826	37.31	972.54	105.36	-160.48	1020.62	111.33	-61.58	996.58	108.35	-46.52	904.04	208.03	-44.81	914.19	2.07	-45.66	909.11	105.05	-105.30	500.20	220.14	-90.52	498.22	-13.51
630	3.145	34.3443	972.644	226.855	40.202	972.449	-16.1239	-160.773	1020.34	152.731	-160.256	1020.91	69.9379	-66.7284	742.221	298.86	-153.596	642.623	269.703	-38.8672	660.317	277.03	-113.476	507.552	277.837	-97.1493	492.863	162.44	-14.9376	653.992	-61.1148	-55.5582	747.487	-94.1214	-111.431	650.389	-82.2034	-90.6859	504.352	-70.845	-90.3673	492.087	43.8275	37.27	972.55	105.37	-160.51	1020.63	111.33	-61.62	996.59	108.35	-46.56	904.04	208.04	-44.84	914.19	2.07	-45.70	909.12	105.06	-105.31	500.21	220.14	-90.53	498.22	-13.51
631	3.15	34.3008	972.651	226.868	40.1792	972.446	-16.1202	-160.815	1020.34	152.731	-160.289	1020.91	69.9368	-66.7732	742.228	298.855	-153.626	642.627	269.7	-38.8953	660.323	277.042	-113.492	507.554	277.838	-97.1621	492.868	162.444	-14.9512	653.995	-61.1138	-55.5777	747.488	-94.1193	-111.443	650.387	-82.2013	-90.6886	504.348	-70.844	-90.3719	492.085	43.8288	37.24	972.55	105.37	-160.55	1020.63	111.33	-61.66	996.59	108.35	-46.60	904.05	208.05	-44.86	914.19	2.08	-45.73	909.12	105.06	-105.33	500.21	220.14	-90.53	498.22	-13.51
632	3.155	34.2585	972.659	226.881	40.1554	972.445	-16.1163	-160.856	1020.35	152.731	-160.322	1020.91	69.935	-66.8177	742.235	298.851	-153.655	642.63	269.697	-38.9226	660.329	277.054	-113.508	507.556	277.838	-97.1755	492.872	162.447	-14.9631	653.998	-61.1124	-55.5956	747.488	-94.1172	-111.453	650.384	-82.1998	-90.69	504.343	-70.8433	-90.3763	492.083	43.8297	37.21	972.55	105.38	-160.59	1020.63	111.33	-61.69	996.59	108.36	-46.64	904.05	208.06	-44.89	914.19	2.09	-45.76	909.12	105.07	-105.34	500.21	220.14	-90.53	498.21	-13.51
633	3.16	34.2174	972.668	226.894	40.1307	972.445	-16.112	-160.897	1020.35	152.73	-160.356	1020.91	69.9324	-66.8619	742.243	298.847	-153.684	642.634	269.695	-38.9493	660.335	277.066	-113.523	507.557	277.84	-97.1896	492.876	162.45	-14.9733	654.001	-61.1105	-55.6118	747.488	-94.115	-111.461	650.381	-82.199	-90.6902	504.339	-70.8429	-90.3804	492.08	43.8303	37.17	972.56	105.39	-160.63	1020.63	111.33	-61.73	996.59	108.36	-46.67	904.06	208.06	-44.92	914.19	2.09	-45.80	909.12	105.08	-105.36	500.22	220.14	-90.54	498.21	-13.51
634	3.165	34.1775	972.677	226.907	40.105	972.447	-16.1073	-160.937	1020.36	152.729	-160.389	1020.91	69.9291	-66.9058	742.25	298.843	-153.712	642.636	269.693	-38.9752	660.342	277.078	-113.536	507.559	277.841	-97.2044	492.88	162.453	-14.9817	654.003	-61.108	-55.6262	747.487	-94.1128	-111.468	650.378	-82.1989	-90.6892	504.335	-70.843	-90.3845	492.078	43.8308	37.14	972.56	105.40	-160.66	1020.63	111.33	-61.76	996.60	108.36	-46.71	904.07	208.07	-44.95	914.19	2.10	-45.83	909.13	105.08	-105.37	500.22	220.15	-90.54	498.21	-13.51
635	3.17	34.1388	972.686	226.92	40.0784	972.451	-16.102	-160.977	1020.36	152.727	-160.423	1020.91	69.9251	-66.9493	742.257	298.84	-153.74	642.639	269.693	-39.0004	660.348	277.091	-113.549	507.561	277.844	-97.2199	492.883	162.455	-14.9884	654.006	-61.1046	-55.6387	747.486	-94.1105	-111.473	650.375	-82.1994	-90.6871	504.331	-70.8435	-90.3886	492.076	43.831	37.11	972.57	105.41	-160.70	1020.63	111.33	-61.80	996.60	108.37	-46.75	904.07	208.07	-44.98	914.19	2.11	-45.86	909.13	105.09	-105.38	500.22	220.15	-90.54	498.20	-13.51
636	3.175	34.1011	972.696	226.934	40.0508	972.457	-16.096	-161.017	1020.36	152.724	-160.457	1020.91	69.9203	-66.9924	742.264	298.837	-153.767	642.641	269.692	-39.025	660.355	277.103	-113.562	507.562	277.847	-97.2357	492.885	162.457	-14.9936	654.008	-61.1001	-55.6491	747.486	-94.1083	-111.477	650.371	-82.2006	-90.684	504.327	-70.8445	-90.393	492.074	43.831	37.08	972.58	105.42	-160.74	1020.63	111.32	-61.83	996.61	108.37	-46.78	904.08	208.08	-45.00	914.19	2.11	-45.89	909.14	105.10	-105.40	500.22	220.15	-90.54	498.20	-13.51
